<svg xmlns="http://www.w3.org/2000/svg" width="400" height="400" id="healthy-reading"><path fill="#FFBE55" d="M284.056 111.203c0 17.964-11.683 42.79-25.806 56.353-6.265 6.023-13.012 9.823-19.435 9.823a40.92 40.92 0 0 1-11.593-1.703 25.215 25.215 0 0 0-14.621 0 40.896 40.896 0 0 1-11.591 1.703c-6.729 0-13.818-4.175-20.336-10.706-13.717-13.734-24.905-37.891-24.905-55.47 0-25.937 15.515-41.606 30.104-45.388 6.988-1.812 15.098-.646 21.646 1.06a49.081 49.081 0 0 0 24.787 0c6.549-1.705 14.654-2.872 21.646-1.06 14.589 3.782 30.104 19.452 30.104 45.388z"></path><path fill="#FCD2B1" d="M233.348 76.615c0 2.951-4.633 5.406-10.782 5.964-.857.081-1.743.119-2.651.119a29.75 29.75 0 0 1-2.759-.125c-6.092-.581-10.671-3.025-10.671-5.958h26.863z"></path><path fill="#2A94F4" d="M210.553 48.557a2.697 2.697 0 0 1 3.652 1.118c.158.302 2.143 4.096 4.146 10.146l7.302-11.087a2.694 2.694 0 0 1 3.738-.768 2.694 2.694 0 0 1 .771 3.737l-9.854 14.965a82.041 82.041 0 0 1 1.791 9.946c.227 1.926.389 3.919.465 5.964-.857.081-1.743.119-2.651.119a29.4 29.4 0 0 1-2.759-.126 68.998 68.998 0 0 0-.498-5.957"></path><path fill="#F2F2F2" d="M58.757 351.909v-45.351c0-8.104 6.569-14.674 14.672-14.674h284.114v74.697H73.429c-8.103.001-14.672-6.568-14.672-14.672zM48.085 195.847h272.109v80.033H48.085z"></path><path fill="#0B4870" d="M53.274 345.24v-32.014c0-14.708 11.969-26.677 26.678-26.677h282.78a5.333 5.333 0 0 1 5.335 5.335 5.333 5.333 0 0 1-5.335 5.337H79.952c-8.827 0-16.007 7.18-16.007 16.005v32.014c0 8.827 7.18 16.007 16.007 16.007h282.78a5.332 5.332 0 0 1 5.335 5.335 5.332 5.332 0 0 1-5.335 5.335H79.952c-14.709 0-26.678-11.969-26.678-26.677z"></path><path fill="#D3D3D3" d="M48.085 211.854h245.433a5.336 5.336 0 0 1 0 10.671H48.085v-10.671zm0 21.34h245.433a5.337 5.337 0 0 1 0 10.672H48.085v-10.672zm0 21.343h245.433a5.336 5.336 0 0 1 5.335 5.336 5.337 5.337 0 0 1-5.335 5.335H48.085v-10.671zm309.458 64.026H80.099a5.336 5.336 0 0 1 0-10.672h277.444v10.672zm0 21.342H80.099a5.336 5.336 0 0 1 0-10.672h277.444v10.672zm0 21.342H80.099a5.337 5.337 0 0 1 0-10.672h277.444v10.672z"></path><path fill="#2A94F4" d="M31.933 275.88c0-5.894 4.778-10.672 10.671-10.672h256.103c5.886 0 10.671-4.788 10.671-10.671v-42.684c0-5.885-4.785-10.671-10.671-10.671H42.604c-5.893 0-10.671-4.778-10.671-10.671 0-5.894 4.778-10.672 10.671-10.672h256.103c17.653 0 32.014 14.361 32.014 32.014v42.684c0 17.653-14.36 32.013-32.014 32.013H42.604c-5.893 0-10.671-4.778-10.671-10.67z"></path></svg>