<svg fill="#ffffff" width="256px" height="256px" viewBox="0 0 24 24" xmlns="http://www.w3.org/2000/svg" stroke="#ffffff" stroke-width="1.44"><g id="SVGRepo_bgCarrier" stroke-width="0"></g><g id="SVGRepo_tracerCarrier" stroke-linecap="round" stroke-linejoin="round"></g><g id="SVGRepo_iconCarrier"><path d="M10,14a1,1,0,0,0-1,1v6a1,1,0,0,0,2,0V15A1,1,0,0,0,10,14ZM5,18a1,1,0,0,0-1,1v2a1,1,0,0,0,2,0V19A1,1,0,0,0,5,18ZM20,2a1,1,0,0,0-1,1V21a1,1,0,0,0,2,0V3A1,1,0,0,0,20,2ZM15,9a1,1,0,0,0-1,1V21a1,1,0,0,0,2,0V10A1,1,0,0,0,15,9Z"></path></g></svg>